<svg id="Layer_5" enable-background="new 0 0 64 64" height="512" viewBox="0 0 64 64" width="512" xmlns="http://www.w3.org/2000/svg" xmlns:xlink="http://www.w3.org/1999/xlink"><linearGradient id="SVGID_1_" gradientUnits="userSpaceOnUse" x1="32" x2="32" y1="63" y2="1"><stop offset="0" stop-color="#9f2fff"/><stop offset="1" stop-color="#0bb1d3"/></linearGradient><path d="m32 20c0 2.206 1.794 4 4 4s4-1.794 4-4c0-.731-.211-1.407-.555-1.997.358-.609.555-1.296.555-2.003 0-2.206-1.794-4-4-4s-4 1.794-4 4c0 .707.197 1.394.555 2.003-.344.59-.555 1.266-.555 1.997zm4 2c-1.103 0-2-.897-2-2s.897-2 2-2 2 .897 2 2-.897 2-2 2zm0-8c1.103 0 2 .897 2 2 0 .19-.032.358-.076.515-.573-.318-1.223-.515-1.924-.515s-1.351.197-1.924.515c-.044-.157-.076-.325-.076-.515 0-1.103.897-2 2-2zm-23 0c0-.551-.448-1-1-1-1.654 0-3-1.346-3-3 0-1.302.839-2.402 2-2.816v-2.184h2v2.184c1.161.414 2 1.514 2 2.816h-2c0-.551-.448-1-1-1s-1 .449-1 1 .448 1 1 1c1.654 0 3 1.346 3 3 0 1.302-.839 2.402-2 2.816v2.184h-2v-2.184c-1.161-.414-2-1.514-2-2.816h2c0 .551.448 1 1 1s1-.449 1-1zm-1 9c3.055 0 5.948-1.301 8-3.467v3.038c-6.268 4.083-10 10.925-10 18.429 0 12.131 9.869 22 22 22s22-9.869 22-22c0-1.727-.21-3.435-.605-5.099 5.408-.689 9.605-5.309 9.605-10.901 0-6.065-4.935-11-11-11-3.055 0-5.948 1.301-8 3.467v-6.467c0-1.654-1.346-3-3-3h-18c-.25 0-.488.04-.72.097-1.602-4.23-5.667-7.097-10.28-7.097-6.065 0-11 4.935-11 11s4.935 11 11 11zm31.528 9c1.93 2.32 4.768 3.793 7.823 3.977.34 1.313.546 2.659.613 4.023h-11.985c-.044-2.772-.267-5.491-.656-8zm-11.528 29c-1.809 0-3.75-3.498-4.92-9h9.84c-1.17 5.502-3.111 9-4.92 9zm-5.293-11c-.394-2.4-.642-5.097-.69-8h11.966c-.047 2.903-.296 5.6-.69 8zm-14.656-8h11.958c.044 2.713.269 5.445.666 8h-10.51c-1.231-2.427-1.972-5.133-2.114-8zm27.941 0h11.958c-.143 2.867-.884 5.573-2.113 8h-10.51c.396-2.555.621-5.287.665-8zm-2.692-10c.403 2.492.634 5.216.679 8h-11.958c.045-2.784.276-5.508.679-8zm-11.3-2v-20h2v20zm-1.323 2c-.389 2.509-.612 5.228-.656 8h-11.989c.139-2.836.864-5.548 2.097-8zm-4.677-6.992v4.992h-4.718c1.253-1.901 2.843-3.589 4.718-4.992zm-4.686 26.992h9.714c.712 3.567 1.787 6.647 3.206 8.633-5.381-1.031-10-4.219-12.92-8.633zm20.452 8.633c1.419-1.986 2.494-5.065 3.206-8.633h9.714c-2.92 4.414-7.539 7.602-12.92 8.633zm16.234-44.633c4.963 0 9 4.038 9 9s-4.037 9-9 9c-3.358 0-6.469-1.921-8-4.901v-8.201c1.55-3.022 4.591-4.898 8-4.898zm-10-5v19h-12v-20h11c.552 0 1 .449 1 1zm-18-1v20h-2v-19c0-.551.448-1 1-1zm-12-7c3.936 0 7.385 2.551 8.567 6.258-.353.492-.567 1.091-.567 1.742v5.102c-1.55 3.022-4.591 4.898-8 4.898-4.963 0-9-4.038-9-9s4.037-9 9-9zm41 24c0-.551-.448-1-1-1-1.654 0-3-1.346-3-3 0-1.302.839-2.402 2-2.816v-2.184h2v2.184c1.161.414 2 1.514 2 2.816h-2c0-.551-.448-1-1-1s-1 .449-1 1 .448 1 1 1c1.654 0 3 1.346 3 3 0 1.302-.839 2.402-2 2.816v2.184h-2v-2.184c-1.161-.414-2-1.514-2-2.816h2c0 .551.448 1 1 1s1-.449 1-1z" fill="url(#SVGID_1_)"/></svg>